<?xml version="1.0" standalone="no"?>
<!DOCTYPE svg PUBLIC "-//W3C//DTD SVG 20010904//EN"
 "http://www.w3.org/TR/2001/REC-SVG-20010904/DTD/svg10.dtd">
<svg version="1.0" xmlns="http://www.w3.org/2000/svg"
 width="260.000000pt" height="260.000000pt" viewBox="0 0 260.000000 260.000000"
 preserveAspectRatio="xMidYMid meet">
<metadata>
Created by potrace 1.11, written by Peter Selinger 2001-2013
</metadata>
<g transform="translate(0.000000,260.000000) scale(0.100000,-0.100000)"
fill="#000000" stroke="none">
<path d="M1728 2495 c-2 -2 -112 -29 -243 -60 -132 -30 -354 -81 -492 -114
l-253 -58 -277 -209 c-153 -115 -286 -217 -296 -227 -24 -24 -7 -47 31 -41 52
10 205 45 212 49 4 2 22 7 41 10 19 3 136 31 260 61 124 30 230 54 235 54 6 0
103 -106 215 -236 246 -285 228 -267 248 -261 35 10 754 201 881 234 74 19
142 41 150 49 13 12 7 22 -46 77 -33 34 -104 107 -156 162 -53 55 -129 134
-168 175 -40 41 -125 131 -189 198 -110 118 -143 147 -153 137z m65 -119 c79
-81 379 -394 490 -511 47 -49 85 -91 83 -92 -10 -10 -960 -253 -966 -246 -4 4
-77 90 -163 190 -86 101 -167 195 -181 210 -13 16 -68 80 -122 143 -55 63
-105 119 -111 123 -35 22 -6 35 190 81 111 26 210 49 220 51 98 21 462 107
466 110 14 14 39 -2 94 -59z m-986 -243 c32 -37 68 -79 81 -93 12 -14 22 -28
22 -31 0 -4 -19 -10 -42 -14 -50 -9 -49 -9 -108 -25 -25 -7 -55 -14 -66 -16
-12 -2 -104 -24 -205 -48 -101 -25 -185 -43 -187 -42 -1 2 28 26 65 54 38 28
136 102 218 166 83 63 153 115 157 115 3 1 33 -29 65 -66z"/>
<path d="M591 1755 c-13 -14 -121 -109 -241 -211 l-217 -185 -2 -107 c-1 -118
-11 -523 -15 -645 -2 -47 1 -81 8 -86 6 -5 72 -28 146 -51 74 -23 306 -96 514
-161 255 -80 383 -116 390 -109 9 6 11 61 10 187 -2 98 -4 316 -6 485 l-3 308
-173 197 c-96 109 -197 224 -225 257 -29 32 -62 68 -73 81 -12 12 -27 31 -33
43 -16 29 -50 28 -80 -3z m105 -112 c67 -78 114 -131 129 -147 6 -6 76 -85
156 -176 l145 -165 3 -405 c2 -223 4 -424 5 -448 1 -23 -2 -42 -8 -42 -19 0
-941 292 -953 302 -7 6 -11 13 -9 17 3 5 15 421 19 694 1 56 3 60 47 100 106
97 391 337 400 337 4 0 34 -30 66 -67z"/>
<path d="M2290 1510 c-74 -20 -306 -83 -515 -140 -209 -57 -384 -108 -390
-112 -14 -13 -14 -1047 1 -1059 7 -5 33 -2 70 10 32 11 156 51 274 89 118 39
323 105 455 147 132 43 245 81 250 86 14 11 14 994 0 1007 -6 6 -62 -5 -145
-28z m102 -42 c6 -18 4 -896 -2 -900 -16 -13 -953 -308 -958 -303 -4 4 -7 218
-7 477 0 462 0 471 20 479 11 5 137 41 280 80 143 39 346 95 450 124 215 60
211 59 217 43z"/>
</g>
</svg>
